<svg width="512" height="512" viewBox="0 0 512 512" xmlns="http://www.w3.org/2000/svg" role="img" aria-label="Chouy Sala — Royal Turtle">
  <defs>
    <linearGradient id="bg" x1="0" y1="0" x2="0" y2="1">
      <stop offset="0" stop-color="#0f172a"/>
      <stop offset="1" stop-color="#1e3a8a"/>
    </linearGradient>
  </defs>
  <rect width="512" height="512" rx="96" fill="url(#bg)"/>
  <circle cx="256" cy="260" r="184" fill="#fef3c7" opacity="0.08"/>
  <g transform="translate(96 96) scale(2.66)">
    <ellipse cx="22" cy="86" rx="9" ry="6" fill="#65a30d" stroke="#365314" stroke-width="1.5"/>
    <ellipse cx="98" cy="86" rx="9" ry="6" fill="#65a30d" stroke="#365314" stroke-width="1.5"/>
    <ellipse cx="30" cy="96" rx="9" ry="6" fill="#65a30d" stroke="#365314" stroke-width="1.5"/>
    <ellipse cx="90" cy="96" rx="9" ry="6" fill="#65a30d" stroke="#365314" stroke-width="1.5"/>
    <path d="M104 78 q10 0 8 -8" stroke="#365314" stroke-width="3" fill="none" stroke-linecap="round"/>
    <ellipse cx="60" cy="74" rx="42" ry="28" fill="#a16207" stroke="#3f2c0a" stroke-width="2"/>
    <path d="M22 74 q0 -28 38 -28 q38 0 38 28 z" fill="#15803d" stroke="#14532d" stroke-width="2"/>
    <g stroke="#14532d" stroke-width="1.4" fill="#22c55e">
      <polygon points="60,52 70,57 70,67 60,72 50,67 50,57"/>
      <polygon points="40,58 48,62 48,70 40,74 32,70 32,62"/>
      <polygon points="80,58 88,62 88,70 80,74 72,70 72,62"/>
    </g>
    <circle cx="14" cy="74" r="13" fill="#84cc16" stroke="#365314" stroke-width="2"/>
    <path d="M4 78 q5 4 10 0" stroke="#365314" stroke-width="1.5" fill="none" stroke-linecap="round"/>
    <circle cx="12" cy="70" r="4.5" fill="#fff"/><circle cx="12" cy="70" r="2" fill="#0b1020"/>
    <circle cx="22" cy="70" r="4.5" fill="#fff"/><circle cx="22" cy="70" r="2" fill="#0b1020"/>
  </g>
</svg>
