<svg width="192" height="192" viewBox="0 0 512 512" xmlns="http://www.w3.org/2000/svg" role="img" aria-label="Chouy Sala — Kouprey">
  <defs>
    <linearGradient id="bg" x1="0" y1="0" x2="0" y2="1">
      <stop offset="0" stop-color="#0f172a"/>
      <stop offset="1" stop-color="#1e3a8a"/>
    </linearGradient>
  </defs>
  <rect width="512" height="512" rx="96" fill="url(#bg)"/>
  <circle cx="256" cy="260" r="184" fill="#fef3c7" opacity="0.08"/>
  <g transform="translate(96 96) scale(2.66)">
    <ellipse cx="62" cy="86" rx="36" ry="22" fill="#4b3621" stroke="#1f140a" stroke-width="2"/>
    <rect x="38" y="98" width="8" height="14" rx="2" fill="#3a2a18"/>
    <rect x="78" y="98" width="8" height="14" rx="2" fill="#3a2a18"/>
    <path d="M97 84 q12 -2 10 12" stroke="#1f140a" stroke-width="3" fill="none" stroke-linecap="round"/>
    <circle cx="107" cy="96" r="3" fill="#1f140a"/>
    <ellipse cx="40" cy="58" rx="26" ry="22" fill="#5a4129" stroke="#1f140a" stroke-width="2"/>
    <ellipse cx="22" cy="66" rx="11" ry="8" fill="#caa07a" stroke="#1f140a" stroke-width="1.5"/>
    <circle cx="17" cy="65" r="1.6" fill="#1f140a"/>
    <circle cx="20" cy="68" r="1.6" fill="#1f140a"/>
    <path d="M18 72 q4 3 8 0" stroke="#1f140a" stroke-width="1.5" fill="none" stroke-linecap="round"/>
    <path d="M30 40 q-10 -16 -22 -10 q8 4 6 16" fill="none" stroke="#e7d8b6" stroke-width="4" stroke-linecap="round"/>
    <path d="M52 40 q10 -16 22 -10 q-8 4 -6 16" fill="none" stroke="#e7d8b6" stroke-width="4" stroke-linecap="round"/>
    <ellipse cx="28" cy="48" rx="5" ry="3" fill="#3a2a18" transform="rotate(-30 28 48)"/>
    <ellipse cx="55" cy="48" rx="5" ry="3" fill="#3a2a18" transform="rotate(30 55 48)"/>
    <circle cx="36" cy="56" r="6.5" fill="#fff"/><circle cx="36" cy="56" r="3" fill="#0b1020"/>
    <circle cx="52" cy="56" r="6.5" fill="#fff"/><circle cx="52" cy="56" r="3" fill="#0b1020"/>
  </g>
</svg>
